# xmcd
#
# Track frame offsets:
#	205
#	12867
#	26110
#	40240
#	55265
#	70595
#	83090
#	96507
#	109195
#	122562
#	135105
#	150037
#	162402
#	176205
#	187605
#	204307
#
# Disc length: 2897 seconds
#
# Revision: 1
# Processed by: cddbd v1.5.1PL2 Copyright (c) Steve Scherf et al.
# Submitted via: audiograbber 1.83.01
#
DISCID=c00b4f10
DTITLE=Leroy Carr - Naptown Blues
DYEAR=1900
DGENRE=Blues
TTITLE0=Naptown Blues
TTITLE1=Love Hides All Faults
TTITLE2=Think Of Me Thinking Of You
TTITLE3=Christmas In Jail - Ain't That A Pain
TTITLE4=How About Me
TTITLE5=Goodbye Blues
TTITLE6=That's Telling Them
TTITLE7=The Dirty Dozen
TTITLE8=Carried Water For The Elephant
TTITLE9=Memphis Town
TTITLE10=Hard Times Done Drove Me To Drink
TTITLE11=Low Down Dog Blues
TTITLE12=What More Can I Do
TTITLE13=Papa Wants To Knock A Jug
TTITLE14=Hold Them Puppies
TTITLE15=Hard Hearted Papa
EXTD=
EXTT0=
EXTT1=
EXTT2=
EXTT3=
EXTT4=
EXTT5=
EXTT6=
EXTT7=
EXTT8=
EXTT9=
EXTT10=
EXTT11=
EXTT12=
EXTT13=
EXTT14=
EXTT15=
PLAYORDER=
